<?xml version="1.0" encoding="utf-8"?>
<!-- Generator: Adobe Illustrator 27.5.0, SVG Export Plug-In . SVG Version: 6.00 Build 0)  -->
<svg version="1.1" id="Capa_2" xmlns="http://www.w3.org/2000/svg" xmlns:xlink="http://www.w3.org/1999/xlink" x="0px" y="0px"
	 viewBox="0 0 2122 2122" style="enable-background:new 0 0 2122 2122;" xml:space="preserve">
<path style="fill:#ffffff;" d="M1649.313,1309.508c26.068-78.974,27.613-162.577,4.86-263.105
	c-10.653-47.084-24.989-93.965-38.855-139.305c-12.217-39.954-24.85-81.267-34.872-122.448
	c-29.634-121.751-19.34-215.181,30.599-277.692c12.053-15.089,31.791-34.295,57.352-40.105c30.11-6.845,64.65,8.614,78.612,35.184
	c14.158,26.948,7.113,62.575-16.392,82.87c-6.468,5.583-14.29,10.287-21.854,14.835c-13.22,7.951-26.891,16.173-35.115,29.802
	c-8.222,13.63-9.128,29.93-8.882,45.516c1.503,95.118,33.946,186.597,65.32,275.062c10.565,29.788,21.488,60.592,31.033,90.998
	c45.291,144.314,35.605,286.572-25.91,380.54c-58.793,89.804-141.92,132.294-245.167,171.225c-2.729,4.67-5.559,9.278-8.482,13.82
	c110.523-40.825,199.273-83.769,261.995-179.579c63.135-96.44,73.259-241.858,27.084-388.993
	c-9.598-30.585-20.553-61.474-31.148-91.347c-31.106-87.707-63.271-178.402-64.748-271.883c-0.207-13.135,0.18-28.156,7.45-40.204
	c6.943-11.511,18.974-18.746,31.712-26.404c7.922-4.768,16.117-9.693,23.23-15.837c26.928-23.247,34.97-64.115,18.707-95.064
	c-16.232-30.885-54.777-48.198-89.656-40.271c-22.461,5.103-44.224,20.183-62.936,43.608c-51.968,65.05-62.901,161.369-32.5,286.278
	c10.093,41.464,22.768,82.918,35.028,123.008c13.81,45.165,28.09,91.869,38.665,138.589c22.334,98.687,20.87,180.597-4.606,257.776
	c-19.714,59.723-54.99,101.359-109.055,127.668c0.308,3.607,0.523,7.21,0.649,10.808
	C1590.112,1417.556,1628.198,1373.476,1649.313,1309.508z"/>
<path style="fill:#AF9B81;" d="M557.946,1767.811c0.078-1.58,0.185-3.109,0.304-4.573c1.245-15.247,8.634-29.966,15.776-44.2
	c1.91-3.805,3.749-7.467,5.443-11.074c-78.607-25.761-142.212-68.349-179.5-120.295c-43.671-60.838-49.766-134.616-15.908-192.54
	c1.388-2.38,4.448-3.182,6.824-1.791c2.38,1.391,3.181,4.446,1.79,6.823c-31.842,54.478-25.941,124.098,15.401,181.691
	c36.879,51.379,100.714,93.396,179.739,118.314c1.344,0.423,2.448,1.398,3.035,2.682c0.587,1.284,0.604,2.755,0.046,4.051
	c-2.378,5.51-5.211,11.154-7.952,16.616c-6.716,13.382-13.661,27.221-14.75,40.536c-0.23,2.822-0.406,5.782-0.417,8.807
	c55.78,27.914,116.533,46.142,178.48,53.623c3.403-3.913,6.577-7.677,9.009-11.697c9.681-16.002,5.037-30.931-0.341-48.217
	c-1.145-3.681-2.302-7.408-3.337-11.196l-30.307-110.969c-11.971-43.839-29.744-87.562-46.935-129.844
	c-36.733-90.36-74.716-183.795-56.319-281.073c0.511-2.704,3.099-4.497,5.829-3.973c2.707,0.511,4.488,3.121,3.973,5.829
	c-17.849,94.39,17.905,182.341,55.761,275.459c17.298,42.556,35.189,86.558,47.318,130.972l30.307,110.971
	c1.003,3.676,2.126,7.289,3.24,10.863c5.581,17.944,11.352,36.499-0.653,56.343c-1.659,2.744-3.575,5.339-5.593,7.842
	c47.397,4.654,95.349,3.002,142.174-5.426c1.287,0.021,2.574,0.039,3.863,0.056c10.283,0.133,20.489,0.232,30.619,0.28
	c0.002-0.009,0.002-0.018,0.003-0.027l-0.078-0.715c-0.085-0.78,0.016-1.537,0.265-2.228c0.143-2.334,0.27-4.631,0.395-6.876
	l35.337-635.349c0.156-2.75,2.555-4.84,5.259-4.704c2.75,0.153,4.857,2.507,4.704,5.259l-35.337,635.346
	c-0.164,2.948-0.333,5.98-0.532,9.067c0.009,0.086,0.018,0.171,0.028,0.257c5.135,0.006,10.248-0.003,15.343-0.029
	c52.918,9.312,107.245,9.986,160.558,2.706c-1.501-1.771-2.928-3.602-4.226-5.517c-13.018-19.191-8.217-38.022-3.574-56.231
	c0.926-3.625,1.861-7.293,2.672-11.013l24.507-112.397c11.776-54.01,36.085-102.741,59.595-149.869
	c37.849-75.878,73.601-147.547,53.069-231.878c-0.65-2.677,0.992-5.374,3.669-6.027c2.655-0.643,5.374,0.989,6.027,3.668
	c21.396,87.876-15.148,161.133-53.837,238.692c-23.235,46.58-47.265,94.745-58.775,147.537l-24.507,112.397
	c-0.836,3.837-1.8,7.617-2.753,11.355c-4.472,17.539-8.336,32.689,2.163,48.166c2.199,3.243,4.903,6.281,7.828,9.364
	c58.536-9.316,115.625-28.219,168.031-55.799c-0.067-1.301-0.151-2.582-0.247-3.835c-1.013-13.377-7.459-27.235-13.693-40.638
	c-2.541-5.459-5.164-11.104-7.367-16.609c-0.506-1.269-0.47-2.694,0.103-3.937c0.57-1.245,1.629-2.197,2.923-2.638
	c73.155-24.884,132.251-66.865,166.409-118.202c38.368-57.673,43.839-127.403,14.275-181.978c-1.313-2.421-0.412-5.449,2.012-6.762
	c2.422-1.321,5.452-0.41,6.763,2.012c31.328,57.829,25.679,131.498-14.743,192.253c-34.575,51.968-93.559,94.582-166.46,120.375
	c1.595,3.673,3.328,7.401,5.133,11.279c6.519,14.017,13.256,28.509,14.541,43.474c48.781-26.971,93.234-61.582,130.658-103.074
	c14.638-16.23,28.396-33.978,40.555-52.872c2.923-4.542,5.753-9.151,8.482-13.82c26.398-45.181,43.209-96.082,41.39-148.028
	c-0.126-3.598-0.34-7.202-0.649-10.808c-0.183-2.145-0.397-4.292-0.646-6.439c-4.083-35.212-18.643-67.686-30.638-100.91
	c3.531-50.813,4.258-102.329,3.7-152.674c-2.229-201.235-19.677-404.211-91.331-592.27l-0.176-0.462
	c-0.843-2.209-1.694-4.419-2.554-6.629l1.661-0.144c-48.162-118.072-150.2-290.271-212.818-348.686
	c-6.137-5.727-12.837-11.51-21.062-13.185c-19.801-4.035-35.241,16.385-44.741,34.222c-17.317,32.518-33.389,65.7-48.176,99.445
	c-99.475-9.847-199.917-9.916-299.405-0.194c-14.763-33.678-30.806-66.795-48.09-99.251c-9.5-17.837-24.941-38.256-44.741-34.222
	c-8.225,1.676-14.925,7.459-21.062,13.185c-62.618,58.416-164.656,230.614-212.818,348.686l0.859,0.074
	c-3.278,8.116-6.412,16.265-9.426,24.409c-57.758,156.1-70.855,323.769-84.524,489.649c-7.112,86.319-7.904,162.948-3.028,230.896
	c-12.39,35.738-28.795,70.328-33.172,108.061c-9.936,85.671,33.164,169.914,89.132,231.967
	C457.582,1703.765,505.409,1740.149,557.946,1767.811z"/>
<path style="fill:#D8B080;" d="M1097.25,689.741c0.39-2.734,2.946-4.624,5.645-4.232l111.588,15.985
	c-1.787-24.175-14.87-45.207-33.99-57.839l-83.992,10.253l-0.612,0.037c-2.485,0-4.636-1.854-4.945-4.385
	c-0.074-0.605-0.036-1.197,0.097-1.758c-9.775,7.841-17.571,18.044-22.524,29.745c4.258,26.265,21.877,50.953,47.235,65.08
	c2.407,1.34,3.272,4.38,1.93,6.787c-0.914,1.637-2.612,2.56-4.363,2.56c-0.821,0-1.654-0.202-2.424-0.631
	c-22.365-12.457-39.287-32.439-47.616-54.875c-0.493,3.5-0.749,7.077-0.749,10.713c0,42.019,34.063,76.082,76.081,76.082
	c40.541,0,73.675-31.709,75.956-71.679l-113.084-16.2C1098.754,694.995,1096.858,692.467,1097.25,689.741z"/>
<path style="fill:#D8B080;" d="M1138.611,631.1c-15.61,0-30.122,4.703-42.198,12.767l67.955-8.295
	C1156.324,632.678,1147.651,631.1,1138.611,631.1z"/>
<path style="fill:#15162B;" d="M886,562.848c10.076,0,18.245-9.277,18.245-20.721c0-11.444-8.169-20.721-18.245-20.721
	c-10.076,0-18.245,9.277-18.245,20.721C867.755,553.571,875.924,562.848,886,562.848z"/>
<ellipse style="fill:#15162B;" cx="1025.562" cy="542.127" rx="18.245" ry="20.721"/>
<path style="fill:#15162B;" d="M937.792,663.665c-9.747,4.76-24.75,3.937-35.674-1.956c-5.988-3.23-9.588-7.384-10.141-11.693
	c-0.348-2.731-2.865-4.699-5.581-4.315c-2.733,0.348-4.665,2.848-4.314,5.581c0.97,7.586,6.402,14.407,15.298,19.208
	c7.642,4.121,16.719,6.224,25.445,6.224c6.98,0,13.735-1.347,19.343-4.085c5.668-2.767,9.733-6.945,12.504-11.862
	c2.771,4.917,6.834,9.095,12.502,11.862c5.608,2.738,12.36,4.085,19.342,4.085c8.726,0,17.805-2.102,25.444-6.224
	c8.897-4.801,14.329-11.622,15.298-19.208c0.351-2.734-1.581-5.233-4.314-5.581c-2.758-0.387-5.23,1.583-5.581,4.315
	c-0.553,4.309-4.154,8.463-10.142,11.693c-10.923,5.891-25.927,6.709-35.674,1.956c-13.743-6.71-13.244-26.373-9.732-37.424
	c2.24-1.77,4.437-3.592,6.582-5.472c4.269-3.742,8.434-7.823,10.79-12.926c2.356-5.104,2.593-11.462-0.739-16.019
	c-0.453-0.62-0.958-1.191-1.506-1.717c-2.772-2.662-6.647-4.186-10.477-5.115c-6.783-1.646-13.941-1.803-20.794-0.454
	c-4.667,0.918-9.344,2.622-12.702,5.911c-11.031,10.806,2.632,25.896,13.85,33.79C950.918,634.732,952.413,656.526,937.792,663.665z
	"/>
<path style="fill:#ffffff;" d="M1090.944,649.561c0.309,2.531,2.46,4.385,4.945,4.385l0.612-0.037l83.992-10.253l156.774-19.138
	c2.736-0.334,4.682-2.821,4.348-5.556c-0.336-2.736-2.84-4.677-5.557-4.348l-171.692,20.959l-67.955,8.295l-1.12,0.137
	c-2.131,0.26-3.783,1.826-4.251,3.799C1090.908,648.364,1090.87,648.956,1090.944,649.561z"/>
<path style="fill:#ffffff;" d="M1335.847,728.908c2.441,0,4.575-1.793,4.93-4.283c0.393-2.726-1.503-5.255-4.231-5.645
	l-122.063-17.486l-111.588-15.985c-2.699-0.392-5.255,1.498-5.645,4.232c-0.392,2.726,1.503,5.254,4.232,5.644l113.084,16.2
	l120.567,17.271L1335.847,728.908z"/>
<path style="fill:#D8B080;" d="M761.124,631.1c-8.625,0-16.913,1.436-24.641,4.08l65.854,8.039
	C790.46,635.552,776.312,631.1,761.124,631.1z"/>
<path style="fill:#D8B080;" d="M804.898,751.344c-0.77,0.429-1.603,0.631-2.424,0.631c-1.752,0-3.452-0.923-4.363-2.56
	c-1.343-2.409-0.477-5.447,1.929-6.787c15.88-8.846,28.723-21.832,37.153-36.754c-0.365-21.63-9.756-41.062-24.568-54.692
	c-0.829,1.662-2.544,2.763-4.458,2.763l-0.612-0.037l-87.632-10.697c-19.656,12.686-33.09,34.184-34.715,58.908l115.953-16.611
	c2.711-0.37,5.254,1.501,5.644,4.232c0.393,2.726-1.503,5.254-4.231,5.644l-117.367,16.814c2.582,39.68,35.584,71.065,75.918,71.065
	c35.209,0,64.831-23.918,73.508-56.391C826.442,736.557,816.388,744.944,804.898,751.344z"/>
<path style="fill:#ffffff;" d="M805.634,579.641c-2.397-1.364-5.445-0.519-6.802,1.881c-1.357,2.397-0.516,5.442,1.881,6.801
	c29.025,16.446,47.695,46.792,47.561,77.31c-0.06,13.907-4.025,27.752-11.081,40.241c-8.43,14.922-21.274,27.908-37.153,36.754
	c-2.407,1.34-3.272,4.377-1.929,6.787c0.911,1.637,2.611,2.56,4.363,2.56c0.821,0,1.654-0.202,2.424-0.631
	c11.491-6.4,21.544-14.786,29.735-24.471c14.808-17.508,23.526-39.26,23.62-61.195C858.401,631.609,837.746,597.839,805.634,579.641
	z"/>
<path style="fill:#ffffff;" d="M1110.895,751.344c0.77,0.429,1.603,0.631,2.424,0.631c1.752,0,3.45-0.923,4.363-2.56
	c1.342-2.407,0.477-5.447-1.93-6.787c-25.357-14.126-42.977-38.815-47.235-65.08c-0.64-3.946-0.982-7.928-0.999-11.914
	c-0.132-30.519,18.538-60.865,47.564-77.31c2.397-1.359,3.237-4.402,1.88-6.801c-1.359-2.4-4.399-3.245-6.802-1.881
	c-32.112,18.195-52.767,51.966-52.621,86.036c0.045,10.452,2.051,20.862,5.738,30.791
	C1071.608,718.905,1088.53,738.886,1110.895,751.344z"/>
<path style="fill:#ffffff;" d="M646.511,359.434c2.706,0.497,5.318-1.262,5.834-3.968c4.823-25.323,14.811-50.124,28.884-71.725
	c3.379-5.186,7.995-11.223,13.73-11.868c8.906-0.969,15.703,11.142,18.93,18.478c11.71,26.582,21.167,54.363,28.107,82.568
	c0.56,2.275,2.599,3.8,4.84,3.798l1.196-0.144c2.677-0.66,4.312-3.362,3.654-6.037c-7.079-28.767-16.724-57.098-28.667-84.207
	c-9.583-21.774-21.162-25.264-29.176-24.37c-9.878,1.111-16.398,9.313-20.974,16.337c-14.775,22.677-25.262,48.718-30.327,75.305
	C642.028,356.307,643.805,358.918,646.511,359.434z"/>
<path style="fill:#ffffff;" d="M1122.868,370.535c-0.658,2.675,0.977,5.377,3.654,6.037l1.196,0.144c2.241,0,4.28-1.523,4.84-3.798
	c6.94-28.205,16.397-55.985,28.107-82.568c3.23-7.335,9.995-19.496,18.93-18.478c5.739,0.646,10.351,6.682,13.73,11.868
	c14.073,21.596,24.061,46.398,28.884,71.725c0.516,2.707,3.131,4.468,5.835,3.968c2.706-0.516,4.482-3.128,3.968-5.834
	c-5.065-26.592-15.552-52.633-30.326-75.305c-4.573-7.021-11.092-15.225-20.975-16.337c-8.046-0.901-19.588,2.599-29.176,24.368
	C1139.592,313.437,1129.948,341.768,1122.868,370.535z"/>
<path style="fill:#ffffff;" d="M808.167,653.946c1.914,0,3.629-1.101,4.458-2.763c0.247-0.495,0.416-1.04,0.487-1.622
	c0.334-2.736-1.612-5.223-4.348-5.557l-6.427-0.785l-65.854-8.039l-168.486-20.567c-2.711-0.329-5.223,1.612-5.556,4.348
	c-0.334,2.735,1.612,5.222,4.348,5.556l153.135,18.694l87.632,10.697L808.167,653.946z"/>
<path style="fill:#ffffff;" d="M806.805,689.741c-0.39-2.731-2.933-4.602-5.644-4.232L685.208,702.12L567.51,718.981
	c-2.729,0.39-4.624,2.919-4.232,5.645c0.356,2.49,2.49,4.283,4.931,4.283l0.714-0.051l116.284-16.658l117.367-16.814
	C805.302,694.995,807.198,692.467,806.805,689.741z"/>
<path style="fill:#ffffff;" d="M955.429,369.741c29.547,11.494,50.2,44.017,48.039,75.649c-0.188,2.75,1.888,5.13,4.636,5.318
	l0.346,0.012c2.599,0,4.792-2.015,4.972-4.648c2.487-36.394-20.38-72.406-54.375-85.632c-2.582-0.996-5.461,0.27-6.46,2.843
	C951.587,365.851,952.859,368.742,955.429,369.741z"/>
<path style="fill:#ffffff;" d="M919.044,369.741c29.549,11.496,50.2,44.017,48.036,75.649c-0.188,2.75,1.888,5.13,4.636,5.318
	l0.346,0.012c2.599,0,4.792-2.015,4.972-4.648c2.49-36.392-20.378-72.406-54.373-85.632c-2.575-0.996-5.461,0.27-6.46,2.843
	C915.202,365.851,916.474,368.742,919.044,369.741z"/>
<path style="fill:#ffffff;" d="M876.749,369.741c29.547,11.494,50.2,44.017,48.039,75.649c-0.188,2.75,1.888,5.13,4.636,5.318
	l0.346,0.012c2.599,0,4.792-2.015,4.972-4.648c2.487-36.394-20.38-72.406-54.375-85.632c-2.575-0.996-5.461,0.27-6.46,2.843
	C872.908,365.851,874.179,368.742,876.749,369.741z"/>
<path style="fill:#ffffff;" d="M988.561,816.159c1.206-2.477,0.178-5.464-2.299-6.67c-2.478-1.206-5.467-0.178-6.67,2.299
	c-2.394,4.919-8.211,8.112-15.561,8.541c-8.051,0.504-15.493-2.573-18.826-7.769c-1.489-2.316-4.572-3.003-6.892-1.508
	c-2.319,1.486-2.997,4.572-1.508,6.891c4.916,7.671,14.818,12.412,25.639,12.412c0.719,0,1.442-0.022,2.171-0.066
	C975.614,829.648,984.566,824.367,988.561,816.159z"/>
<path style="fill:#ffffff;" d="M1295.806,1719.177c-1.805-3.878-3.537-7.605-5.133-11.279
	c72.901-25.793,131.885-68.407,166.46-120.375c40.422-60.755,46.071-134.423,14.743-192.253c-1.311-2.422-4.341-3.333-6.763-2.012
	c-2.424,1.313-3.325,4.341-2.012,6.762c29.564,54.575,24.093,124.305-14.275,181.978c-34.158,51.338-93.255,93.318-166.409,118.202
	c-1.294,0.441-2.353,1.393-2.923,2.638c-0.573,1.242-0.609,2.668-0.103,3.937c2.203,5.505,4.826,11.15,7.367,16.609
	c6.234,13.403,12.68,27.262,13.693,40.638c0.095,1.253,0.18,2.534,0.247,3.835c0.432,8.495,0.059,17.877-3.637,26.398
	c-2.612,6.025-7.002,11.949-13.423,18.115c-33.09,31.773-86.547,39.423-129.644,42.471c-2.541-11.757-10.546-20.029-18.305-28.042
	c-1.025-1.059-2.036-2.103-3.022-3.143c-2.926-3.083-5.629-6.121-7.828-9.364c-10.499-15.476-6.635-30.626-2.163-48.166
	c0.953-3.737,1.917-7.518,2.753-11.355l24.507-112.397c11.51-52.792,35.539-100.957,58.775-147.537
	c38.689-77.559,75.233-150.816,53.837-238.692c-0.653-2.68-3.372-4.312-6.027-3.668c-2.677,0.653-4.319,3.35-3.669,6.027
	c20.531,84.331-15.221,156-53.069,231.878c-23.51,47.128-47.819,95.859-59.595,149.869l-24.507,112.397
	c-0.811,3.72-1.747,7.389-2.672,11.013c-4.643,18.209-9.444,37.04,3.574,56.231c1.298,1.915,2.725,3.746,4.226,5.517
	c2.459,2.904,5.114,5.646,7.715,8.33c7.459,7.705,14.507,14.984,16.007,24.748c1.61,10.48-2.127,19.63-10.251,25.101
	c-8.748,5.9-20.151,6-29.756,0.273c-8.719-5.196-13.355-9.652-13.835-11.043c-0.453-2.716-2.996-4.558-5.742-4.1
	c-2.716,0.453-4.553,3.023-4.099,5.742l0.002,0.01c1.257,7.556-0.577,14.823-5.164,20.46c-4.604,5.659-11.391,8.945-19.111,9.25
	c-7.615,0.278-15.739-2.845-22.26-8.626c-5.737-5.086-12.212-13.944-11.661-17.33l0.003-0.01c0.456-2.719-1.381-5.289-4.097-5.744
	c-2.699-0.438-5.286,1.381-5.744,4.098c-1.415,8.46-7.325,15.055-16.214,18.092c-10.44,3.574-22.18,1.277-29.895-5.859
	c-16.061-14.848-19.313-43.073-21.796-66.069c-0.01-0.086-0.018-0.171-0.028-0.257c0.2-3.087,0.368-6.12,0.532-9.067l35.337-635.346
	c0.153-2.753-1.954-5.106-4.704-5.259c-2.704-0.137-5.103,1.954-5.259,4.704l-35.337,635.349c-0.124,2.245-0.252,4.542-0.395,6.876
	c-0.249,0.691-0.35,1.448-0.265,2.228l0.078,0.715c-0.001,0.009-0.001,0.018-0.003,0.027c-1.409,21.125-4.441,44.569-17.81,58.285
	c-7.332,7.525-18.94,10.419-29.551,7.401c-9.036-2.572-15.279-8.852-17.13-17.225c-0.597-2.692-3.25-4.392-5.949-3.796
	c-2.69,0.595-4.39,3.26-3.796,5.949c0.738,3.342-5.271,12.538-10.74,17.922c-6.214,6.112-14.156,9.674-21.788,9.769l-0.368,0.002
	c-7.576,0-14.38-2.921-19.194-8.246c-4.877-5.394-7.084-12.558-6.217-20.176v-0.002c0.312-2.736-1.656-5.208-4.392-5.52
	c-2.704-0.28-5.162,1.617-5.513,4.311c-0.48,1.562-4.872,6.224-13.252,11.828c-9.298,6.214-20.692,6.704-29.732,1.271
	c-8.397-5.045-12.601-13.988-11.537-24.536c0.992-9.83,7.65-17.462,14.699-25.542c1.881-2.153,3.79-4.343,5.615-6.607
	c2.019-2.503,3.934-5.098,5.593-7.842c12.005-19.844,6.234-38.399,0.653-56.343c-1.113-3.574-2.237-7.186-3.24-10.863
	l-30.307-110.971c-12.129-44.414-30.02-88.417-47.318-130.972c-37.856-93.118-73.61-181.069-55.761-275.459
	c0.514-2.709-1.267-5.318-3.973-5.829c-2.731-0.524-5.318,1.269-5.829,3.973c-18.397,97.279,19.586,190.713,56.319,281.073
	c17.191,42.282,34.965,86.005,46.935,129.844l30.307,110.969c1.035,3.788,2.192,7.515,3.337,11.196
	c5.379,17.286,10.022,32.215,0.341,48.217c-2.432,4.02-5.606,7.784-9.009,11.697c-0.392,0.45-0.785,0.901-1.181,1.355
	c-6.985,8.006-14.18,16.259-16.514,27.285c-0.384-0.124-0.788-0.203-1.208-0.23c-46.743-3.02-105.016-10.597-141.033-42.65
	c-6.935-6.17-11.676-12.097-14.495-18.114c-3.196-6.832-4.073-14.227-4.049-21.269c0.011-3.025,0.187-5.985,0.417-8.807
	c1.089-13.315,8.034-27.154,14.75-40.536c2.741-5.461,5.574-11.105,7.952-16.616c0.558-1.296,0.541-2.767-0.046-4.051
	c-0.587-1.284-1.691-2.259-3.035-2.682c-79.025-24.919-142.859-66.935-179.739-118.314
	c-41.343-57.593-47.243-127.213-15.401-181.691c1.391-2.377,0.59-5.432-1.79-6.823c-2.375-1.391-5.435-0.59-6.824,1.791
	c-33.859,57.924-27.764,131.702,15.908,192.54c37.289,51.946,100.894,94.534,179.5,120.295c-1.693,3.608-3.532,7.269-5.443,11.074
	c-7.142,14.234-14.531,28.952-15.776,44.2c-0.119,1.464-0.226,2.993-0.304,4.573c-0.461,9.284,0.064,20.331,4.843,30.547
	c3.406,7.269,8.933,14.249,16.899,21.338c38.29,34.075,98.685,42.032,147.023,45.154l0.327,0.01c0.257,0,0.51-0.021,0.757-0.058
	c0.526,11.897,6.448,22.189,16.497,28.226c12.202,7.33,28.066,6.731,40.419-1.53c3.347-2.239,6.224-4.38,8.626-6.419
	c1.401,5.316,4.032,10.21,7.798,14.375c6.733,7.449,16.158,11.532,26.592,11.532l0.499-0.003
	c10.331-0.129,20.509-4.616,28.66-12.636c0.095-0.093,5.628-5.596,9.644-12.409c4.373,5.651,10.67,9.89,18.239,12.046
	c14.093,4.01,29.573,0.076,39.427-10.031c8.065-8.272,12.877-19.017,15.859-30.592c3.452,14.827,9.191,28.889,19.876,38.768
	c10.363,9.586,26.022,12.719,39.895,7.973c7.447-2.545,13.515-7.103,17.588-12.974c4.365,6.597,10.18,11.803,10.278,11.89
	c8.151,7.23,17.978,11.159,27.824,11.159c0.482,0,0.967-0.009,1.452-0.029c10.621-0.419,20.017-5.006,26.456-12.919
	c3.544-4.355,5.919-9.381,7.042-14.763c2.504,1.912,5.488,3.903,8.945,5.964c12.769,7.612,28.643,7.386,40.443-0.568
	c9.186-6.187,14.496-15.976,14.977-27.079c44.755-3.173,100.357-11.266,135.715-45.218c7.396-7.099,12.521-14.081,15.669-21.34
	c5.157-11.89,4.945-24.928,4.185-34.96c-0.016-0.205-0.036-0.411-0.054-0.616
	C1309.062,1747.685,1302.325,1733.194,1295.806,1719.177z"/>
</svg>
